# xmcd CD database file
#
# Track frame offsets:
#	150
#	10583
#	29184
#	53038
#	73671
#	96398
#	131919
#	157224
#	180517
#	205646
#	230436
#	244609
#	258375
#	283683
#	299807
#
# Disc length: 4228 seconds
#
# Revision: 0
# Processed by: cddbd v1.5.2PL0 Copyright (c) Steve Scherf et al.
# Submitted via: CDex 1.70beta2
#
DISCID=e510820f
DTITLE=Various Artist - WTPI Indy Jazz Sampler Volume 4
DYEAR=2000
DGENRE=Jazz
TTITLE0=Stan Hillis - Donna Lee/Indiana
TTITLE1=Tony Medeiros - Funky Chicken
TTITLE2=Bill Lancton - Whisk Brooming In Brazil
TTITLE3=Monika Herzig - Effendi
TTITLE4=Buselli Wallerab Jazz Orchestra - Cottontail
TTITLE5=Larry Calland and Conga Jazz - World Is A Ghetto
TTITLE6=Steve Allee - Art's Groove
TTITLE7=Charlie Smith - Absolutely
TTITLE8=Amy Stephens Group - Blue J
TTITLE9=George Middleton - Finally
TTITLE10=Steve Robinett - Get Happy
TTITLE11=Rob Swaynie - My Angels
TTITLE12=Invisible Art - Naima
TTITLE13=Cathy Morris and Collage - White Christmas
TTITLE14=Frank Glover and Claude Sifferlen - I'll Be Seeing You
EXTD=YEAR: 2000
EXTT0=
EXTT1=
EXTT2=
EXTT3=
EXTT4=
EXTT5=
EXTT6=
EXTT7=
EXTT8=
EXTT9=
EXTT10=
EXTT11=
EXTT12=
EXTT13=
EXTT14=
PLAYORDER=
